<?xml version="1.0" encoding="utf-8"?>
<svg version="1.1" xmlns:xlink="http://www.w3.org/1999/xlink" width="20px" height="22px" xmlns="http://www.w3.org/2000/svg">
  <g transform="matrix(1 0 0 1 -18 -83 )">
    <path d="M 8.55208333333333 13.2549687677456  C 9.07291666666667 12.6303236797274  9.33333333333333 11.8765852735188  9.33333333333333 10.9937535491198  C 9.33333333333333 10.1109218247208  9.07291666666667 9.35718341851221  8.55208333333333 8.73253833049404  C 8.03125 8.10789324247586  7.40277777777778 7.79557069846678  6.66666666666667 7.79557069846678  C 5.93055555555556 7.79557069846678  5.30208333333333 8.10789324247586  4.78125 8.73253833049404  C 4.26041666666667 9.35718341851221  4 10.1109218247208  4 10.9937535491198  C 4 11.8765852735188  4.26041666666667 12.6303236797274  4.78125 13.2549687677456  C 5.30208333333333 13.8796138557638  5.93055555555556 14.1919363997729  6.66666666666667 14.1919363997729  C 7.40277777777778 14.1919363997729  8.03125 13.8796138557638  8.55208333333333 13.2549687677456  Z M 16.9427083333333 18.5207268597388  C 17.203125 18.2084043157297  17.3333333333333 17.8315351126254  17.3333333333333 17.3901192504259  C 17.3333333333333 16.9570319894  17.2013888888889 16.5822449365891  16.9375 16.2657580919932  C 16.6736111111111 15.9492712473973  16.3611111111111 15.7910278250994  16 15.7910278250994  C 15.6388888888889 15.7910278250994  15.3263888888889 15.9492712473973  15.0625 16.2657580919932  C 14.7986111111111 16.5822449365891  14.6666666666667 16.9570319894  14.6666666666667 17.3901192504259  C 14.6666666666667 17.8315351126254  14.796875 18.2084043157297  15.0572916666667 18.5207268597388  C 15.3177083333333 18.8330494037479  15.6319444444444 18.9892106757524  16 18.9892106757524  C 16.3680555555556 18.9892106757524  16.6822916666667 18.8330494037479  16.9427083333333 18.5207268597388  Z M 16.9427083333333 5.72799545712663  C 17.203125 5.41567291311755  17.3333333333333 5.03880371001325  17.3333333333333 4.59738784781374  C 17.3333333333333 4.16430058678781  17.2013888888889 3.78951353397691  16.9375 3.47302668938103  C 16.6736111111111 3.15653984478516  16.3611111111111 2.99829642248722  16 2.99829642248722  C 15.6388888888889 2.99829642248722  15.3263888888889 3.15653984478516  15.0625 3.47302668938103  C 14.7986111111111 3.78951353397691  14.6666666666667 4.16430058678781  14.6666666666667 4.59738784781374  C 14.6666666666667 5.03880371001325  14.796875 5.41567291311755  15.0572916666667 5.72799545712663  C 15.3177083333333 6.04031800113572  15.6319444444444 6.19647927314026  16 6.19647927314026  C 16.3680555555556 6.19647927314026  16.6822916666667 6.04031800113572  16.9427083333333 5.72799545712663  Z M 13.2604166666667 9.61328790459966  C 13.3090277777778 9.68408101457505  13.3333333333333 9.76528487601741  13.3333333333333 9.85689948892675  L 13.3333333333333 12.168086314594  C 13.3333333333333 12.2513723263297  13.3090277777778 12.3325761877721  13.2604166666667 12.4116978989211  C 13.2118055555556 12.49081961007  13.15625 12.5345447662313  13.09375 12.5428733674049  L 11.4791666666667 12.8427030096536  C 11.4027777777778 13.1342040507288  11.2916666666667 13.4506908953246  11.1458333333333 13.7921635434412  C 11.3819444444444 14.1919363997729  11.6944444444444 14.6708309672535  12.0833333333333 15.228847245883  C 12.1319444444444 15.3204618587924  12.15625 15.4037478705281  12.15625 15.4787052810903  C 12.15625 15.5786484951732  12.1319444444444 15.6577702063222  12.0833333333333 15.7160704145372  C 11.9236111111111 15.9659284497445  11.6371527777778 16.338633352262  11.2239583333333 16.8341851220897  C 10.8107638888889 17.3297368919175  10.5381944444444 17.5775127768313  10.40625 17.5775127768313  C 10.3298611111111 17.5775127768313  10.2569444444444 17.5483626727238  10.1875 17.4900624645088  L 8.98958333333333 16.3657013060761  C 8.73263888888889 16.523944728374  8.46527777777778 16.6530380465645  8.1875 16.7529812606474  C 8.11111111111111 17.6524701873935  8.03125 18.2979367783456  7.94791666666667 18.6893810335037  C 7.89930555555556 18.8892674616695  7.79513888888889 18.9892106757524  7.63541666666667 18.9892106757524  L 5.69791666666667 18.9892106757524  C 5.62152777777778 18.9892106757524  5.55208333333333 18.9579784213515  5.48958333333333 18.8955139125497  C 5.42708333333333 18.8330494037479  5.39236111111111 18.7601741434791  5.38541666666667 18.6768881317433  L 5.14583333333333 16.7654741624077  C 4.90972222222222 16.682188150672  4.64930555555556 16.5530948324815  4.36458333333333 16.3781942078365  L 3.13541666666667 17.4900624645088  C 3.08680555555556 17.5483626727238  3.01736111111111 17.5775127768313  2.92708333333333 17.5775127768313  C 2.85069444444444 17.5775127768313  2.77777777777778 17.544198372137  2.70833333333333 17.4775695627484  C 1.70833333333333 16.3698656066629  1.20833333333333 15.7035775127768  1.20833333333333 15.4787052810903  C 1.20833333333333 15.4037478705281  1.23263888888889 15.3246261593791  1.28125 15.2413401476434  C 1.35069444444444 15.1247397312133  1.49305555555556 14.9040318001136  1.70833333333333 14.5792163543441  C 1.92361111111111 14.2544009085747  2.08680555555556 14.0003785727806  2.19791666666667 13.817149346962  C 2.03819444444444 13.4506908953246  1.91666666666667 13.109218247208  1.83333333333333 12.7927314026122  L 0.25 12.4929017603634  C 0.180555555555556 12.4845731591899  0.121527777777778 12.4450123036154  0.0729166666666667 12.37421919364  C 0.0243055555555556 12.3034260836646  0 12.2222222222222  0 12.1306076093129  L 0 9.81942078364566  C 0 9.7361347719099  0.0243055555555556 9.65493091046754  0.0729166666666667 9.57580919931857  C 0.121527777777778 9.4966874881696  0.177083333333333 9.45296233200833  0.239583333333333 9.44463373083475  L 1.85416666666667 9.14480408858603  C 1.93055555555556 8.85330304751088  2.04166666666667 8.53681620291501  2.1875 8.19534355479841  C 1.95138888888889 7.79557069846678  1.63888888888889 7.31667613098618  1.25 6.75865985235662  C 1.20138888888889 6.66704523944728  1.17708333333333 6.58375922771153  1.17708333333333 6.50880181714935  C 1.17708333333333 6.40885860306644  1.20138888888889 6.32557259133068  1.25 6.25894378194208  C 1.40277777777778 6.00908574673481  1.6875 5.63846299451069  2.10416666666667 5.14707552526973  C 2.52083333333333 4.65568805602877  2.79513888888889 4.40999432140829  2.92708333333333 4.40999432140829  C 3.00347222222222 4.40999432140829  3.07638888888889 4.4391444255158  3.14583333333333 4.49744463373084  L 4.34375 5.62180579216354  C 4.57986111111111 5.47189097103918  4.84722222222222 5.33863335226197  5.14583333333333 5.22203293583191  C 5.22222222222222 4.32254400908575  5.30208333333333 3.68124171872042  5.38541666666667 3.29812606473595  C 5.43402777777778 3.09823963657013  5.53819444444445 2.99829642248722  5.69791666666667 2.99829642248722  L 7.63541666666667 2.99829642248722  C 7.71180555555556 2.99829642248722  7.78125 3.02952867688813  7.84375 3.09199318568995  C 7.90625 3.15445769449176  7.94097222222222 3.22733295476055  7.94791666666667 3.31061896649631  L 8.1875 5.22203293583191  C 8.42361111111111 5.30531894756767  8.68402777777778 5.43441226575809  8.96875 5.60931289040318  L 10.1979166666667 4.49744463373084  C 10.2534722222222 4.4391444255158  10.3229166666667 4.40999432140829  10.40625 4.40999432140829  C 10.4826388888889 4.40999432140829  10.5555555555556 4.44330872610259  10.625 4.5099375354912  C 11.625 5.61764149157675  12.125 6.28392958546281  12.125 6.50880181714935  C 12.125 6.57543062653795  12.1006944444444 6.65455233768692  12.0520833333333 6.74616695059625  C 11.96875 6.87942456937346  11.8229166666667 7.10429680106  11.6145833333333 7.42078364565588  C 11.40625 7.73727049025175  11.25 7.98712852545902  11.1458333333333 8.17035775127768  C 11.3055555555556 8.57013060760931  11.4236111111111 8.91160325572591  11.5 9.19477569562748  L 13.0833333333333 9.48211243611584  C 13.1527777777778 9.49876963846299  13.2118055555556 9.54249479462427  13.2604166666667 9.61328790459966  Z M 18.4479166666667 16.1283361726292  C 19.4826388888889 16.2532651902328  20 16.3823585084232  20 16.5156161272005  L 20 18.2646223736513  C 20 18.3978799924285  19.4826388888889 18.526973310619  18.4479166666667 18.6519023282226  C 18.3645833333333 18.8767745599091  18.2604166666667 19.0933181904221  18.1354166666667 19.3015332197615  C 18.4895833333333 20.2426651523755  18.6666666666667 20.8173386333523  18.6666666666667 21.0255536626917  C 18.6666666666667 21.058868067386  18.6527777777778 21.0880181714935  18.625 21.1130039750142  C 17.7777777777778 21.7043346583381  17.3472222222222 22  17.3333333333333 22  C 17.2777777777778 22  17.1180555555556 21.804277872421  16.8541666666667 21.4128336172629  C 16.5902777777778 21.0213893621049  16.4097222222222 20.7382169222033  16.3125 20.5633162975582  C 16.1736111111111 20.5799734999054  16.0694444444444 20.5883021010789  16 20.5883021010789  C 15.9305555555556 20.5883021010789  15.8263888888889 20.5799734999054  15.6875 20.5633162975582  C 15.5902777777778 20.7382169222033  15.4097222222222 21.0213893621049  15.1458333333333 21.4128336172629  C 14.8819444444444 21.804277872421  14.7222222222222 22  14.6666666666667 22  C 14.6527777777778 22  14.2222222222222 21.7043346583381  13.375 21.1130039750142  C 13.3472222222222 21.0880181714935  13.3333333333333 21.058868067386  13.3333333333333 21.0255536626917  C 13.3333333333333 20.8173386333523  13.5104166666667 20.2426651523755  13.8645833333333 19.3015332197615  C 13.7395833333333 19.0933181904221  13.6354166666667 18.8767745599091  13.5520833333333 18.6519023282226  C 12.5173611111111 18.526973310619  12 18.3978799924285  12 18.2646223736513  L 12 16.5156161272005  C 12 16.3823585084232  12.5173611111111 16.2532651902328  13.5520833333333 16.1283361726292  C 13.6423611111111 15.8868067385955  13.7465277777778 15.6702631080825  13.8645833333333 15.4787052810903  C 13.5104166666667 14.5375733484762  13.3333333333333 13.9628998674995  13.3333333333333 13.7546848381601  C 13.3333333333333 13.7213704334658  13.3472222222222 13.6922203293583  13.375 13.6672345258376  C 13.4027777777778 13.6505773234904  13.5243055555556 13.5672913117547  13.7395833333333 13.4173764906303  C 13.9548611111111 13.267461669506  14.1597222222222 13.1258754495552  14.3541666666667 12.992617830778  C 14.5486111111111 12.8593602120008  14.6527777777778 12.7927314026122  14.6666666666667 12.7927314026122  C 14.7222222222222 12.7927314026122  14.8819444444444 12.9863713798978  15.1458333333333 13.3736513344691  C 15.4097222222222 13.7609312890403  15.5902777777778 14.0420215786485  15.6875 14.2169222032936  C 15.8263888888889 14.2002650009464  15.9305555555556 14.1919363997729  16 14.1919363997729  C 16.0694444444444 14.1919363997729  16.1736111111111 14.2002650009464  16.3125 14.2169222032936  C 16.6666666666667 13.6255915199697  16.9861111111111 13.1591898542495  17.2708333333333 12.8177172061329  L 17.3333333333333 12.7927314026122  C 17.3611111111111 12.7927314026122  17.7916666666667 13.0842324436873  18.625 13.6672345258376  C 18.6527777777778 13.6922203293583  18.6666666666667 13.7213704334658  18.6666666666667 13.7546848381601  C 18.6666666666667 13.9628998674995  18.4895833333333 14.5375733484762  18.1354166666667 15.4787052810903  C 18.2534722222222 15.6702631080825  18.3576388888889 15.8868067385955  18.4479166666667 16.1283361726292  Z M 18.4479166666667 3.33560477001704  C 19.4826388888889 3.46053378762067  20 3.58962710581109  20 3.7228847245883  L 20 5.47189097103918  C 20 5.60514858981639  19.4826388888889 5.73424190800681  18.4479166666667 5.85917092561045  C 18.3645833333333 6.08404315729699  18.2604166666667 6.30058678780996  18.1354166666667 6.50880181714935  C 18.4895833333333 7.44993374976339  18.6666666666667 8.02460723074011  18.6666666666667 8.2328222600795  C 18.6666666666667 8.2661366647738  18.6527777777778 8.29528676888132  18.625 8.32027257240204  C 17.7777777777778 8.91160325572591  17.3472222222222 9.20726859738785  17.3333333333333 9.20726859738785  C 17.2777777777778 9.20726859738785  17.1180555555556 9.01154646980882  16.8541666666667 8.62010221465077  C 16.5902777777778 8.22865795949271  16.4097222222222 7.94548551959114  16.3125 7.77058489494605  C 16.1736111111111 7.7872420972932  16.0694444444444 7.79557069846678  16 7.79557069846678  C 15.9305555555556 7.79557069846678  15.8263888888889 7.7872420972932  15.6875 7.77058489494605  C 15.5902777777778 7.94548551959114  15.4097222222222 8.22865795949271  15.1458333333333 8.62010221465077  C 14.8819444444444 9.01154646980882  14.7222222222222 9.20726859738785  14.6666666666667 9.20726859738785  C 14.6527777777778 9.20726859738785  14.2222222222222 8.91160325572591  13.375 8.32027257240204  C 13.3472222222222 8.29528676888132  13.3333333333333 8.2661366647738  13.3333333333333 8.2328222600795  C 13.3333333333333 8.02460723074011  13.5104166666667 7.44993374976339  13.8645833333333 6.50880181714935  C 13.7395833333333 6.30058678780996  13.6354166666667 6.08404315729699  13.5520833333333 5.85917092561045  C 12.5173611111111 5.73424190800681  12 5.60514858981639  12 5.47189097103918  L 12 3.7228847245883  C 12 3.58962710581109  12.5173611111111 3.46053378762067  13.5520833333333 3.33560477001704  C 13.6423611111111 3.09407533598334  13.7465277777778 2.87753170547037  13.8645833333333 2.68597387847814  C 13.5104166666667 1.74484194586409  13.3333333333333 1.17016846488737  13.3333333333333 0.961953435547985  C 13.3333333333333 0.928639030853681  13.3472222222222 0.899488926746168  13.375 0.874503123225441  C 13.4027777777778 0.857845920878286  13.5243055555556 0.774559909142533  13.7395833333333 0.624645088018172  C 13.9548611111111 0.474730266893811  14.1597222222222 0.333144046943022  14.3541666666667 0.199886428165815  C 14.5486111111111 0.0666288093886034  14.6527777777778 0  14.6666666666667 0  C 14.7222222222222 0  14.8819444444444 0.193639977285632  15.1458333333333 0.580919931856899  C 15.4097222222222 0.968199886428165  15.5902777777778 1.24929017603634  15.6875 1.42419080068143  C 15.8263888888889 1.40753359833428  15.9305555555556 1.39920499716071  16 1.39920499716071  C 16.0694444444444 1.39920499716071  16.1736111111111 1.40753359833428  16.3125 1.42419080068143  C 16.6666666666667 0.832860117357559  16.9861111111111 0.366458451637326  17.2708333333333 0.0249858035207269  L 17.3333333333333 0  C 17.3611111111111 0  17.7916666666667 0.291501041075145  18.625 0.874503123225441  C 18.6527777777778 0.899488926746168  18.6666666666667 0.928639030853681  18.6666666666667 0.961953435547985  C 18.6666666666667 1.17016846488737  18.4895833333333 1.74484194586409  18.1354166666667 2.68597387847814  C 18.2534722222222 2.87753170547037  18.3576388888889 3.09407533598334  18.4479166666667 3.33560477001704  Z " fill-rule="nonzero" fill="#ffffff" stroke="none" transform="matrix(1 0 0 1 18 83 )" />
  </g>
</svg>