<?xml version="1.0" encoding="utf-8"?>
<svg version="1.1" xmlns:xlink="http://www.w3.org/1999/xlink" width="21px" height="17px" xmlns="http://www.w3.org/2000/svg">
  <g transform="matrix(1 0 0 1 -18 -142 )">
    <path d="M 12 13.9090909090909  L 12 15.4545454545455  L 19.5 15.4545454545455  L 19.5 13.9090909090909  L 12 13.9090909090909  Z M 7.5 8  L 7.5 9  L 19.5 9  L 19.5 8  L 7.5 8  Z M 15 1.54545454545455  L 15 3.09090909090909  L 19.5 3.09090909090909  L 19.5 1.54545454545455  L 15 1.54545454545455  Z M 20.77734375 12.5930397727273  C 20.92578125 12.7459753787879  21 12.9270833333333  21 13.1363636363636  L 21 16.2272727272727  C 21 16.436553030303  20.92578125 16.6176609848485  20.77734375 16.7705965909091  C 20.62890625 16.9235321969697  20.453125 17  20.25 17  L 0.75 17  C 0.546875 17  0.37109375 16.9235321969697  0.22265625 16.7705965909091  C 0.07421875 16.6176609848485  0 16.436553030303  0 16.2272727272727  L 0 13.1363636363636  C 0 12.9270833333333  0.07421875 12.7459753787879  0.22265625 12.5930397727273  C 0.37109375 12.4401041666667  0.546875 12.3636363636364  0.75 12.3636363636364  L 20.25 12.3636363636364  C 20.453125 12.3636363636364  20.62890625 12.4401041666667  20.77734375 12.5930397727273  Z M 20.77734375 6.41122159090909  C 20.92578125 6.56415719696969  21 6.74526515151515  21 6.95454545454545  L 21 10.0454545454545  C 21 10.2547348484848  20.92578125 10.4358428030303  20.77734375 10.5887784090909  C 20.62890625 10.7417140151515  20.453125 10.8181818181818  20.25 10.8181818181818  L 0.75 10.8181818181818  C 0.546875 10.8181818181818  0.37109375 10.7417140151515  0.22265625 10.5887784090909  C 0.07421875 10.4358428030303  0 10.2547348484848  0 10.0454545454545  L 0 6.95454545454545  C 0 6.74526515151515  0.07421875 6.56415719696969  0.22265625 6.41122159090909  C 0.37109375 6.25828598484848  0.546875 6.18181818181818  0.75 6.18181818181818  L 20.25 6.18181818181818  C 20.453125 6.18181818181818  20.62890625 6.25828598484848  20.77734375 6.41122159090909  Z M 20.77734375 0.22940340909091  C 20.92578125 0.382339015151513  21 0.563446969696969  21 0.772727272727272  L 21 3.86363636363636  C 21 4.07291666666667  20.92578125 4.25402462121212  20.77734375 4.40696022727273  C 20.62890625 4.55989583333333  20.453125 4.63636363636364  20.25 4.63636363636364  L 0.75 4.63636363636364  C 0.546875 4.63636363636364  0.37109375 4.55989583333333  0.22265625 4.40696022727273  C 0.07421875 4.25402462121212  0 4.07291666666667  0 3.86363636363636  L 0 0.772727272727272  C 0 0.563446969696969  0.07421875 0.382339015151513  0.22265625 0.22940340909091  C 0.37109375 0.0764678030303014  0.546875 0  0.75 0  L 20.25 0  C 20.453125 0  20.62890625 0.0764678030303014  20.77734375 0.22940340909091  Z " fill-rule="nonzero" fill="#ffffff" stroke="none" transform="matrix(1 0 0 1 18 142 )" />
  </g>
</svg>