<?xml version="1.0" encoding="utf-8"?>
<svg version="1.1" xmlns:xlink="http://www.w3.org/1999/xlink" width="21px" height="20px" xmlns="http://www.w3.org/2000/svg">
  <g transform="matrix(1 0 0 1 -18 -249 )">
    <path d="M 1.3125 18  L 21 18  L 21 20  L 0 20  L 0 0  L 1.3125 0  L 1.3125 18  Z M 19.59521484375 1.78385416666667  C 19.65673828125 1.86197916666667  19.6875 1.96180555555555  19.6875 2.08333333333333  L 19.6875 7.74739583333333  C 19.6875 7.9296875  19.620849609375 8.05772569444444  19.487548828125 8.13151041666667  C 19.354248046875 8.20529513888889  19.23291015625 8.17274305555556  19.12353515625 8.03385416666667  L 17.8828125 6.45833333333333  L 11.39208984375 14.7005208333333  C 11.32373046875 14.7873263888889  11.2451171875 14.8307291666667  11.15625 14.8307291666667  C 11.0673828125 14.8307291666667  10.98876953125 14.7873263888889  10.92041015625 14.7005208333333  L 8.53125 11.6666666666667  L 4.265625 17.0833333333333  L 2.296875 14.5833333333333  L 8.29541015625 6.96614583333333  C 8.36376953125 6.87934027777778  8.4423828125 6.8359375  8.53125 6.8359375  C 8.6201171875 6.8359375  8.69873046875 6.87934027777778  8.76708984375 6.96614583333333  L 11.15625 10  L 15.9140625 3.95833333333333  L 14.67333984375 2.3828125  C 14.56396484375 2.24392361111111  14.538330078125 2.08984375  14.596435546875 1.92057291666667  C 14.654541015625 1.75130208333333  14.75537109375 1.66666666666667  14.89892578125 1.66666666666667  L 19.359375 1.66666666666667  C 19.455078125 1.66666666666667  19.53369140625 1.70572916666667  19.59521484375 1.78385416666667  Z " fill-rule="nonzero" fill="#ffffff" stroke="none" transform="matrix(1 0 0 1 18 249 )" />
  </g>
</svg>