<?xml version="1.0" encoding="utf-8"?>
<svg version="1.1" xmlns:xlink="http://www.w3.org/1999/xlink" width="18px" height="18px" xmlns="http://www.w3.org/2000/svg">
  <g transform="matrix(1 0 0 1 -18 -198 )">
    <path d="M 17.28515625 5.5078125  C 17.76171875 6.6171875  18 7.78125  18 9  C 18 10.21875  17.76171875 11.3828125  17.28515625 12.4921875  C 16.80859375 13.6015625  16.16796875 14.55859375  15.36328125 15.36328125  C 14.55859375 16.16796875  13.6015625 16.80859375  12.4921875 17.28515625  C 11.3828125 17.76171875  10.21875 18  9 18  C 7.65625 18  6.37890625 17.716796875  5.16796875 17.150390625  C 3.95703125 16.583984375  2.92578125 15.78515625  2.07421875 14.75390625  C 2.01953125 14.67578125  1.994140625 14.587890625  1.998046875 14.490234375  C 2.001953125 14.392578125  2.03515625 14.3125  2.09765625 14.25  L 3.703125 12.6328125  C 3.78125 12.5625  3.87890625 12.52734375  3.99609375 12.52734375  C 4.12109375 12.54296875  4.2109375 12.58984375  4.265625 12.66796875  C 4.8359375 13.41015625  5.53515625 13.984375  6.36328125 14.390625  C 7.19140625 14.796875  8.0703125 15  9 15  C 9.8125 15  10.587890625 14.841796875  11.326171875 14.525390625  C 12.064453125 14.208984375  12.703125 13.78125  13.2421875 13.2421875  C 13.78125 12.703125  14.208984375 12.064453125  14.525390625 11.326171875  C 14.841796875 10.587890625  15 9.8125  15 9  C 15 8.1875  14.841796875 7.412109375  14.525390625 6.673828125  C 14.208984375 5.935546875  13.78125 5.296875  13.2421875 4.7578125  C 12.703125 4.21875  12.064453125 3.791015625  11.326171875 3.474609375  C 10.587890625 3.158203125  9.8125 3  9 3  C 8.234375 3  7.5 3.138671875  6.796875 3.416015625  C 6.09375 3.693359375  5.46875 4.08984375  4.921875 4.60546875  L 6.52734375 6.22265625  C 6.76953125 6.45703125  6.82421875 6.7265625  6.69140625 7.03125  C 6.55859375 7.34375  6.328125 7.5  6 7.5  L 0.75 7.5  C 0.546875 7.5  0.37109375 7.42578125  0.22265625 7.27734375  C 0.07421875 7.12890625  0 6.953125  0 6.75  L 0 1.5  C 0 1.171875  0.15625 0.94140625  0.46875 0.80859375  C 0.7734375 0.675781249999998  1.04296875 0.73046875  1.27734375 0.972656250000001  L 2.80078125 2.484375  C 3.63671875 1.6953125  4.591796875 1.083984375  5.666015625 0.650390625  C 6.740234375 0.216796875000001  7.8515625 0  9 0  C 10.21875 0  11.3828125 0.23828125  12.4921875 0.714843749999999  C 13.6015625 1.19140625  14.55859375 1.83203125  15.36328125 2.63671875  C 16.16796875 3.44140625  16.80859375 4.3984375  17.28515625 5.5078125  Z M 10.39453125 5.35546875  C 10.46484375 5.42578125  10.5 5.515625  10.5 5.625  L 10.5 10.875  C 10.5 10.984375  10.46484375 11.07421875  10.39453125 11.14453125  C 10.32421875 11.21484375  10.234375 11.25  10.125 11.25  L 6.375 11.25  C 6.265625 11.25  6.17578125 11.21484375  6.10546875 11.14453125  C 6.03515625 11.07421875  6 10.984375  6 10.875  L 6 10.125  C 6 10.015625  6.03515625 9.92578125  6.10546875 9.85546875  C 6.17578125 9.78515625  6.265625 9.75  6.375 9.75  L 9 9.75  L 9 5.625  C 9 5.515625  9.03515625 5.42578125  9.10546875 5.35546875  C 9.17578125 5.28515625  9.265625 5.25  9.375 5.25  L 10.125 5.25  C 10.234375 5.25  10.32421875 5.28515625  10.39453125 5.35546875  Z " fill-rule="nonzero" fill="#ffffff" stroke="none" transform="matrix(1 0 0 1 18 198 )" />
  </g>
</svg>