<?xml version="1.0" encoding="utf-8"?>
<svg version="1.1" xmlns:xlink="http://www.w3.org/1999/xlink" width="17px" height="13px" xmlns="http://www.w3.org/2000/svg">
  <g transform="matrix(1 0 0 1 -1721 -90 )">
    <path d="M 12.8828125 11.805625  C 13.0122195512821 11.7027083333333  13.0769230769231 11.5808333333333  13.0769230769231 11.44  C 13.0769230769231 11.2991666666667  13.0122195512821 11.1772916666667  12.8828125 11.074375  C 12.753405448718 10.9714583333333  12.6001602564103 10.92  12.4230769230769 10.92  C 12.2459935897436 10.92  12.0927483974359 10.9714583333333  11.9633413461538 11.074375  C 11.8339342948718 11.1772916666667  11.7692307692308 11.2991666666667  11.7692307692308 11.44  C 11.7692307692308 11.5808333333333  11.8339342948718 11.7027083333333  11.9633413461538 11.805625  C 12.0927483974359 11.9085416666667  12.2459935897436 11.96  12.4230769230769 11.96  C 12.6001602564103 11.96  12.753405448718 11.9085416666667  12.8828125 11.805625  Z M 15.4981971153846 11.805625  C 15.6276041666667 11.7027083333333  15.6923076923077 11.5808333333333  15.6923076923077 11.44  C 15.6923076923077 11.2991666666667  15.6276041666667 11.1772916666667  15.4981971153846 11.074375  C 15.3687900641026 10.9714583333333  15.2155448717949 10.92  15.0384615384615 10.92  C 14.8613782051282 10.92  14.7081330128205 10.9714583333333  14.5787259615385 11.074375  C 14.4493189102564 11.1772916666667  14.3846153846154 11.2991666666667  14.3846153846154 11.44  C 14.3846153846154 11.5808333333333  14.4493189102564 11.7027083333333  14.5787259615385 11.805625  C 14.7081330128205 11.9085416666667  14.8613782051282 11.96  15.0384615384615 11.96  C 15.2155448717949 11.96  15.3687900641026 11.9085416666667  15.4981971153846 11.805625  Z M 16.7139423076923 9.0675  C 16.9046474358974 9.21916666666666  17 9.40333333333333  17 9.62  L 17 12.22  C 17 12.4366666666667  16.9046474358974 12.6208333333333  16.7139423076923 12.7725  C 16.5232371794872 12.9241666666667  16.2916666666667 13  16.0192307692308 13  L 0.980769230769231 13  C 0.708333333333333 13  0.476762820512821 12.9241666666667  0.286057692307692 12.7725  C 0.0953525641025641 12.6208333333333  0 12.4366666666667  0 12.22  L 0 9.62  C 0 9.40333333333333  0.0953525641025641 9.21916666666666  0.286057692307692 9.0675  C 0.476762820512821 8.91583333333333  0.708333333333333 8.84  0.980769230769231 8.84  L 5.34314903846154 8.84  C 5.48617788461538 9.14333333333333  5.72626201923077 9.3925  6.06340144230769 9.5875  C 6.40054086538462 9.7825  6.77684294871795 9.88  7.19230769230769 9.88  L 9.80769230769231 9.88  C 10.2231570512821 9.88  10.5994591346154 9.7825  10.9365985576923 9.5875  C 11.2737379807692 9.3925  11.5138221153846 9.14333333333333  11.6568509615385 8.84  L 16.0192307692308 8.84  C 16.2916666666667 8.84  16.5232371794872 8.91583333333333  16.7139423076923 9.0675  Z M 13.5366586538462 3.794375  C 13.747796474359 3.956875  13.7954727564103 4.14375  13.6796875 4.355  C 13.5639022435897 4.57166666666667  13.3629807692308 4.68  13.0769230769231 4.68  L 10.4615384615385 4.68  L 10.4615384615385 8.32  C 10.4615384615385 8.46083333333333  10.3968349358974 8.58270833333333  10.2674278846154 8.685625  C 10.1380208333333 8.78854166666667  9.98477564102564 8.84  9.80769230769231 8.84  L 7.19230769230769 8.84  C 7.01522435897436 8.84  6.86197916666667 8.78854166666667  6.73257211538462 8.685625  C 6.60316506410256 8.58270833333333  6.53846153846154 8.46083333333333  6.53846153846154 8.32  L 6.53846153846154 4.68  L 3.92307692307692 4.68  C 3.63701923076923 4.68  3.43609775641026 4.57166666666667  3.3203125 4.355  C 3.20452724358974 4.14375  3.25220352564103 3.956875  3.46334134615385 3.794375  L 8.04026442307692 0.154375  C 8.16286057692308 0.0514583333333327  8.31610576923077 0  8.5 0  C 8.68389423076923 0  8.83713942307692 0.0514583333333327  8.95973557692308 0.154375  L 13.5366586538462 3.794375  Z " fill-rule="nonzero" fill="#ffffff" stroke="none" transform="matrix(1 0 0 1 1721 90 )" />
  </g>
</svg>