<?xml version="1.0" encoding="utf-8"?>
<svg version="1.1" xmlns:xlink="http://www.w3.org/1999/xlink" width="17px" height="14px" xmlns="http://www.w3.org/2000/svg">
  <g transform="matrix(1 0 0 1 -1817 -90 )">
    <path d="M 12.8828125 12.66015625  C 13.0122195512821 12.5447048611111  13.0769230769231 12.4079861111111  13.0769230769231 12.25  C 13.0769230769231 12.0920138888889  13.0122195512821 11.9552951388889  12.8828125 11.83984375  C 12.753405448718 11.7243923611111  12.6001602564103 11.6666666666667  12.4230769230769 11.6666666666667  C 12.2459935897436 11.6666666666667  12.0927483974359 11.7243923611111  11.9633413461538 11.83984375  C 11.8339342948718 11.9552951388889  11.7692307692308 12.0920138888889  11.7692307692308 12.25  C 11.7692307692308 12.4079861111111  11.8339342948718 12.5447048611111  11.9633413461538 12.66015625  C 12.0927483974359 12.7756076388889  12.2459935897436 12.8333333333333  12.4230769230769 12.8333333333333  C 12.6001602564103 12.8333333333333  12.753405448718 12.7756076388889  12.8828125 12.66015625  Z M 15.4981971153846 12.66015625  C 15.6276041666667 12.5447048611111  15.6923076923077 12.4079861111111  15.6923076923077 12.25  C 15.6923076923077 12.0920138888889  15.6276041666667 11.9552951388889  15.4981971153846 11.83984375  C 15.3687900641026 11.7243923611111  15.2155448717949 11.6666666666667  15.0384615384615 11.6666666666667  C 14.8613782051282 11.6666666666667  14.7081330128205 11.7243923611111  14.5787259615385 11.83984375  C 14.4493189102564 11.9552951388889  14.3846153846154 12.0920138888889  14.3846153846154 12.25  C 14.3846153846154 12.4079861111111  14.4493189102564 12.5447048611111  14.5787259615385 12.66015625  C 14.7081330128205 12.7756076388889  14.8613782051282 12.8333333333333  15.0384615384615 12.8333333333333  C 15.2155448717949 12.8333333333333  15.3687900641026 12.7756076388889  15.4981971153846 12.66015625  Z M 16.7139423076923 9.58854166666667  C 16.9046474358974 9.75868055555555  17 9.96527777777778  17 10.2083333333333  L 17 13.125  C 17 13.3680555555556  16.9046474358974 13.5746527777778  16.7139423076923 13.7447916666667  C 16.5232371794872 13.9149305555556  16.2916666666667 14  16.0192307692308 14  L 0.980769230769231 14  C 0.708333333333333 14  0.476762820512821 13.9149305555556  0.286057692307692 13.7447916666667  C 0.0953525641025641 13.5746527777778  0 13.3680555555556  0 13.125  L 0 10.2083333333333  C 0 9.96527777777778  0.0953525641025641 9.75868055555555  0.286057692307692 9.58854166666667  C 0.476762820512821 9.41840277777778  0.708333333333333 9.33333333333333  0.980769230769231 9.33333333333333  L 5.73137019230769 9.33333333333333  L 7.11057692307692 10.5729166666667  C 7.50560897435898 10.9131944444444  7.96875 11.0833333333333  8.5 11.0833333333333  C 9.03125 11.0833333333333  9.49439102564103 10.9131944444444  9.88942307692308 10.5729166666667  L 11.2788461538462 9.33333333333333  L 16.0192307692308 9.33333333333333  C 16.2916666666667 9.33333333333333  16.5232371794872 9.41840277777778  16.7139423076923 9.58854166666667  Z M 13.0769230769231 4.66666666666667  C 13.3629807692308 4.66666666666667  13.5639022435897 4.78515625  13.6796875 5.02213541666667  C 13.7954727564103 5.27126736111111  13.747796474359 5.48394097222222  13.5366586538462 5.66015625  L 8.95973557692308 9.74348958333333  C 8.83713942307692 9.85894097222222  8.68389423076923 9.91666666666667  8.5 9.91666666666667  C 8.31610576923077 9.91666666666667  8.16286057692308 9.85894097222222  8.04026442307692 9.74348958333333  L 3.46334134615385 5.66015625  C 3.25220352564103 5.48394097222222  3.20452724358974 5.27126736111111  3.3203125 5.02213541666667  C 3.43609775641026 4.78515625  3.63701923076923 4.66666666666667  3.92307692307692 4.66666666666667  L 6.53846153846154 4.66666666666667  L 6.53846153846154 0.583333333333333  C 6.53846153846154 0.42534722222222  6.60316506410256 0.28862847222222  6.73257211538462 0.173177083333333  C 6.86197916666667 0.0577256944444453  7.01522435897436 0  7.19230769230769 0  L 9.80769230769231 0  C 9.98477564102564 0  10.1380208333333 0.0577256944444453  10.2674278846154 0.173177083333333  C 10.3968349358974 0.28862847222222  10.4615384615385 0.42534722222222  10.4615384615385 0.583333333333333  L 10.4615384615385 4.66666666666667  L 13.0769230769231 4.66666666666667  Z " fill-rule="nonzero" fill="#ffffff" stroke="none" transform="matrix(1 0 0 1 1817 90 )" />
  </g>
</svg>