<?xml version="1.0" encoding="utf-8"?>
<svg version="1.1" xmlns:xlink="http://www.w3.org/1999/xlink" width="12px" height="12px" viewBox="107 92.5  12 12" xmlns="http://www.w3.org/2000/svg">
  <path d="M 113 92.5  C 116.36 92.5  119 95.14  119 98.5  C 119 101.86  116.36 104.5  113 104.5  C 109.64 104.5  107 101.86  107 98.5  C 107 95.14  109.64 92.5  113 92.5  Z " fill-rule="nonzero" fill="#ffffff" stroke="none" />
  <path d="M 113 93  C 116.08 93  118.5 95.42  118.5 98.5  C 118.5 101.58  116.08 104  113 104  C 109.92 104  107.5 101.58  107.5 98.5  C 107.5 95.42  109.92 93  113 93  Z " stroke-width="1" stroke="#797979" fill="none" />
  <path d="M 113 101.5  C 111.32 101.5  110 100.18  110 98.5  C 110 96.82  111.32 95.5  113 95.5  C 114.68 95.5  116 96.82  116 98.5  C 116 100.18  114.68 101.5  113 101.5  " fill-rule="nonzero" fill="#797979" stroke="none" />
</svg>