<?xml version="1.0" encoding="utf-8"?>
<svg version="1.1" xmlns:xlink="http://www.w3.org/1999/xlink" width="12px" height="12px" viewBox="385 91  12 12" xmlns="http://www.w3.org/2000/svg">
  <path d="M 391 91  C 394.36 91  397 93.64  397 97  C 397 100.36  394.36 103  391 103  C 387.64 103  385 100.36  385 97  C 385 93.64  387.64 91  391 91  Z " fill-rule="nonzero" fill="#d9001b" stroke="none" />
  <path d="M 391 91.5  C 394.08 91.5  396.5 93.92  396.5 97  C 396.5 100.08  394.08 102.5  391 102.5  C 387.92 102.5  385.5 100.08  385.5 97  C 385.5 93.92  387.92 91.5  391 91.5  Z " stroke-width="1" stroke="#a30014" fill="none" />
  <path d="M 391 100  C 389.32 100  388 98.68  388 97  C 388 95.32  389.32 94  391 94  C 392.68 94  394 95.32  394 97  C 394 98.68  392.68 100  391 100  " fill-rule="nonzero" fill="#a30014" stroke="none" />
</svg>