<?xml version="1.0" encoding="utf-8"?>
<svg version="1.1" xmlns:xlink="http://www.w3.org/1999/xlink" width="21px" height="21px" xmlns="http://www.w3.org/2000/svg">
  <g transform="matrix(1 0 0 1 -1788 -94 )">
    <path d="M 15.9140625 18.990234375  C 16.0739182692308 18.8170572916667  16.1538461538462 18.6119791666667  16.1538461538462 18.375  C 16.1538461538462 18.1380208333333  16.0739182692308 17.9329427083333  15.9140625 17.759765625  C 15.7542067307692 17.5865885416667  15.5649038461538 17.5  15.3461538461538 17.5  C 15.1274038461538 17.5  14.9381009615385 17.5865885416667  14.7782451923077 17.759765625  C 14.6183894230769 17.9329427083333  14.5384615384615 18.1380208333333  14.5384615384615 18.375  C 14.5384615384615 18.6119791666667  14.6183894230769 18.8170572916667  14.7782451923077 18.990234375  C 14.9381009615385 19.1634114583333  15.1274038461538 19.25  15.3461538461538 19.25  C 15.5649038461538 19.25  15.7542067307692 19.1634114583333  15.9140625 18.990234375  Z M 19.1448317307692 18.990234375  C 19.3046875 18.8170572916667  19.3846153846154 18.6119791666667  19.3846153846154 18.375  C 19.3846153846154 18.1380208333333  19.3046875 17.9329427083333  19.1448317307692 17.759765625  C 18.9849759615385 17.5865885416667  18.7956730769231 17.5  18.5769230769231 17.5  C 18.3581730769231 17.5  18.1688701923077 17.5865885416667  18.0090144230769 17.759765625  C 17.8491586538462 17.9329427083333  17.7692307692308 18.1380208333333  17.7692307692308 18.375  C 17.7692307692308 18.6119791666667  17.8491586538462 18.8170572916667  18.0090144230769 18.990234375  C 18.1688701923077 19.1634114583333  18.3581730769231 19.25  18.5769230769231 19.25  C 18.7956730769231 19.25  18.9849759615385 19.1634114583333  19.1448317307692 18.990234375  Z M 20.6466346153846 14.3828125  C 20.8822115384615 14.6380208333333  21 14.9479166666667  21 15.3125  L 21 19.6875  C 21 20.0520833333333  20.8822115384615 20.3619791666667  20.6466346153846 20.6171875  C 20.4110576923077 20.8723958333333  20.125 21  19.7884615384615 21  L 1.21153846153846 21  C 0.875 21  0.588942307692308 20.8723958333333  0.353365384615385 20.6171875  C 0.117788461538462 20.3619791666667  0 20.0520833333333  0 19.6875  L 0 15.3125  C 0 14.9479166666667  0.117788461538462 14.6380208333333  0.353365384615385 14.3828125  C 0.588942307692308 14.1276041666667  0.875 14  1.21153846153846 14  L 7.07992788461538 14  L 8.78365384615385 15.859375  C 9.27163461538462 16.3697916666667  9.84375 16.625  10.5 16.625  C 11.15625 16.625  11.7283653846154 16.3697916666667  12.2163461538462 15.859375  L 13.9326923076923 14  L 19.7884615384615 14  C 20.125 14  20.4110576923077 14.1276041666667  20.6466346153846 14.3828125  Z M 16.1538461538462 7  C 16.5072115384615 7  16.7554086538462 7.177734375  16.8984375 7.533203125  C 17.0414663461539 7.90690104166667  16.9825721153846 8.22591145833333  16.7217548076923 8.490234375  L 11.0679086538462 14.615234375  C 10.9164663461538 14.7884114583333  10.7271634615385 14.875  10.5 14.875  C 10.2728365384615 14.875  10.0835336538462 14.7884114583333  9.93209134615385 14.615234375  L 4.27824519230769 8.490234375  C 4.01742788461539 8.22591145833333  3.95853365384615 7.90690104166667  4.1015625 7.533203125  C 4.24459134615385 7.177734375  4.49278846153846 7  4.84615384615385 7  L 8.07692307692308 7  L 8.07692307692308 0.874999999999999  C 8.07692307692308 0.63802083333333  8.15685096153846 0.43294270833333  8.31670673076923 0.259765624999999  C 8.4765625 0.086588541666668  8.66586538461539 0  8.88461538461539 0  L 12.1153846153846 0  C 12.3341346153846 0  12.5234375 0.086588541666668  12.6832932692308 0.259765624999999  C 12.8431490384615 0.43294270833333  12.9230769230769 0.63802083333333  12.9230769230769 0.874999999999999  L 12.9230769230769 7  L 16.1538461538462 7  Z " fill-rule="nonzero" fill="#ffffff" stroke="none" transform="matrix(1 0 0 1 1788 94 )" />
  </g>
</svg>