<?xml version="1.0" encoding="utf-8"?>
<svg version="1.1" xmlns:xlink="http://www.w3.org/1999/xlink" width="20px" height="10px" xmlns="http://www.w3.org/2000/svg">
  <g transform="matrix(1 0 0 1 -1838 -158 )">
    <path d="M 19.7995991983968 1.03092783505155  C 19.9331997327989 1.14547537227949  20 1.27720504009164  20 1.42611683848797  C 20 1.57502863688431  19.9331997327989 1.70675830469645  19.7995991983968 1.8213058419244  L 10.4609218436874 9.82817869415807  C 10.3273213092852 9.94272623138602  10.1736806947228 10  10 10  C 9.82631930527722 10  9.67267869071476 9.94272623138602  9.53907815631263 9.82817869415807  L 0.200400801603206 1.8213058419244  C 0.066800267201069 1.70675830469645  0 1.57502863688431  0 1.42611683848797  C 0 1.27720504009164  0.066800267201069 1.14547537227949  0.200400801603206 1.03092783505155  L 1.20240480961924 0.171821305841925  C 1.33600534402138 0.0572737686139735  1.48964595858383 0  1.66332665330661 0  C 1.83700734802939 0  1.99064796259185 0.0572737686139735  2.12424849699399 0.171821305841925  L 10 6.92439862542955  L 17.875751503006 0.171821305841925  C 18.0093520374081 0.0572737686139735  18.1629926519706 0  18.3366733466934 0  C 18.5103540414162 0  18.6639946559786 0.0572737686139735  18.7975951903808 0.171821305841925  L 19.7995991983968 1.03092783505155  Z " fill-rule="nonzero" fill="#00bfbf" stroke="none" transform="matrix(1 0 0 1 1838 158 )" />
  </g>
</svg>