<?xml version="1.0" encoding="utf-8"?>
<svg version="1.1" xmlns:xlink="http://www.w3.org/1999/xlink" width="8px" height="16px" xmlns="http://www.w3.org/2000/svg">
  <g transform="matrix(1 0 0 1 -1418 -756 )">
    <path d="M 7.86254295532646 0.96192384769539  C 7.95418098510882 1.0688042752171  8 1.19171676686707  8 1.33066132264529  C 8 1.46960587842351  7.95418098510882 1.59251837007348  7.86254295532646 1.69939879759519  L 2.46048109965636 8  L 7.86254295532646 14.3006012024048  C 7.95418098510882 14.4074816299265  8 14.5303941215765  8 14.6693386773547  C 8 14.8082832331329  7.95418098510882 14.9311957247829  7.86254295532646 15.0380761523046  L 7.17525773195876 15.8396793587174  C 7.0836197021764 15.9465597862391  6.97823596792669 16  6.85910652920962 16  C 6.73997709049256 16  6.63459335624284 15.9465597862391  6.54295532646048 15.8396793587174  L 0.13745704467354 8.3687374749499  C 0.0458190148911799 8.26185704742819  0 8.13894455577822  0 8  C 0 7.86105544422178  0.0458190148911799 7.73814295257181  0.13745704467354 7.6312625250501  L 6.54295532646048 0.160320641282565  C 6.63459335624284 0.0534402137608545  6.73997709049256 0  6.85910652920962 0  C 6.97823596792669 0  7.0836197021764 0.0534402137608545  7.17525773195876 0.160320641282565  L 7.86254295532646 0.96192384769539  Z " fill-rule="nonzero" fill="#7f7f7f" stroke="none" transform="matrix(1 0 0 1 1418 756 )" />
  </g>
</svg>