<?xml version="1.0" encoding="utf-8"?>
<svg version="1.1" xmlns:xlink="http://www.w3.org/1999/xlink" width="26px" height="21px" xmlns="http://www.w3.org/2000/svg">
  <g transform="matrix(1 0 0 1 -23 -94 )">
    <path d="M 2.16666666666667 0  L 23.8333333333333 0  C 24.4291666666667 0  24.9392361111111 0.214192708333331  25.3635416666667 0.642578125000001  C 25.7878472222222 1.07096354166667  26 1.5859375  26 2.1875  L 26 18.8125  C 26 19.4140625  25.7878472222222 19.9290364583333  25.3635416666667 20.357421875  C 24.9392361111111 20.7858072916667  24.4291666666667 21  23.8333333333333 21  L 2.16666666666667 21  C 1.57083333333333 21  1.06076388888889 20.7858072916667  0.636458333333333 20.357421875  C 0.212152777777778 19.9290364583333  0 19.4140625  0 18.8125  L 0 2.1875  C 0 1.5859375  0.212152777777778 1.07096354166667  0.636458333333333 0.642578125000001  C 1.06076388888889 0.214192708333331  1.57083333333333 0  2.16666666666667 0  Z M 23.8333333333333 2  L 2.16666666666667 2  C 2.04930555555556 1.75  1.94774305555556 1.79329427083333  1.86197916666667 1.8798828125  C 1.77621527777778 1.96647135416666  1.73333333333333 2.06901041666666  1.73333333333333 2.1875  L 1.73333333333333 5.25  L 24.2666666666667 5.25  L 24.2666666666667 2.1875  C 24.2666666666667 2.06901041666666  24.2237847222222 1.96647135416666  24.1380208333333 1.8798828125  C 24.0522569444444 1.79329427083333  23.9506944444444 1.75  23.8333333333333 2  Z M 2.16666666666667 19  L 23.8333333333333 19  C 23.9506944444444 19.25  24.0522569444444 19.2067057291667  24.1380208333333 19.1201171875  C 24.2237847222222 19.0335286458333  24.2666666666667 18.9309895833333  24.2666666666667 18.8125  L 24.2666666666667 10.5  L 1.73333333333333 10.5  L 1.73333333333333 18.8125  C 1.73333333333333 18.9309895833333  1.77621527777778 19.0335286458333  1.86197916666667 19.1201171875  C 1.94774305555556 19.2067057291667  2.04930555555556 19.25  2.16666666666667 19  Z M 6.93333333333333 17.5  L 3.46666666666667 17.5  L 3.46666666666667 15.75  L 6.93333333333333 15.75  L 6.93333333333333 17.5  Z M 13.8666666666667 17.5  L 8.66666666666667 17.5  L 8.66666666666667 15.75  L 13.8666666666667 15.75  L 13.8666666666667 17.5  Z " fill-rule="nonzero" fill="#ffffff" stroke="none" transform="matrix(1 0 0 1 23 94 )" />
  </g>
</svg>