<?xml version="1.0" encoding="utf-8"?>
<svg version="1.1" xmlns:xlink="http://www.w3.org/1999/xlink" width="26px" height="21px" xmlns="http://www.w3.org/2000/svg">
  <g transform="matrix(1 0 0 1 -23 -153 )">
    <path d="M 4.91615081598199 17.9377453729669  C 5.20877884074283 18.228266965788  5.35509285312324 18.5737521031969  5.35509285312324 18.9742007851935  C 5.35509285312324 19.6023555804823  5.08928906396549 20.0970274817723  4.55768148564997 20.4582164890634  C 4.02607390733446 20.8194054963545  3.36522228474958 21  2.57512661789533 21  C 1.54117426374039 21  0.702307259425999 20.7408861469434  0.0585256049521667 20.2226584408301  L 0.89251547552054 19.1862030286035  C 1.3704745826299 19.5395401009534  1.88745075970737 19.7162086371284  2.44344400675295 19.7162086371284  C 2.72631776402176 19.7162086371284  2.97261301819546 19.6592821088054  3.18232976927406 19.5454290521593  C 3.39204652035265 19.4315759955132  3.49690489589195 19.2647223780146  3.49690489589195 19.0448681996635  C 3.49690489589195 18.5423443634324  2.9848058525605 18.3224901850813  1.96060776589758 18.3853056646102  L 1.5801913337085 17.7257431295569  C 1.65822547364472 17.6472237801458  1.81673232039017 17.4764441951767  2.05571187394485 17.2134043746495  C 2.29469142749953 16.9503645541223  2.50196961170512 16.7383623107123  2.67754642656162 16.5773976444195  C 2.85312324141812 16.4164329781268  3.03357719002063 16.2652832305104  3.21890827236916 16.1239484015704  L 3.21890827236916 16.1121704991587  C 3.06283999249672 16.1121704991587  2.82629900581504 16.1160964666293  2.50928531232414 16.1239484015704  C 2.19227161883324 16.1318003365115  1.95573063215157 16.1357263039821  1.79966235227912 16.1357263039821  L 1.79966235227912 16.7599551318003  L 0.248733821046708 16.7599551318003  L 0.248733821046708 14.9697139652271  L 5.12099043331458 14.9697139652271  L 5.12099043331458 16.0061693774537  L 3.73100731570062 17.3606281547953  C 4.22847495779404 17.4548513740886  4.62352279122116 17.6472237801458  4.91615081598199 17.9377453729669  Z M 3.84805852560495 11.5894559730791  L 5.38435565559932 11.5894559730791  L 5.38435565559932 13.4621424565339  L 0.08778840742825 13.4621424565339  C 0.0292628024760834 13.179472798654  0 12.967470555244  0 12.826135726304  C 0 12.4256870443073  0.114612643031326 12.0605720695457  0.343837929093979 11.7307908020191  C 0.573063215156631 11.4010095344924  0.848621271806415 11.1340437464947  1.17051209904333 10.9298934380258  C 1.49240292628025 10.7257431295569  1.81429375351716 10.5392596747056  2.13618458075408 10.3704430734717  C 2.458075407991 10.2016264722378  2.73363346464078 10.0308468872686  2.96285875070343 9.85810431856422  C 3.19208403676609 9.68536174985979  3.30669667979741 9.5086932136848  3.30669667979741 9.32809871003926  C 3.30669667979741 9.1318003365115  3.23597824048021 8.98065058889512  3.09454136184581 8.87464946719013  C 2.9531044832114 8.76864834548514  2.76045770024386 8.71564778463264  2.51660101294316 8.71564778463264  C 2.06790470830989 8.71564778463264  1.67285687488276 8.94335389792485  1.33145751266179 9.39876612450925  L 0.08778840742825 8.70386988222098  C 0.321890827236916 8.30342120022434  0.670605890076909 7.9913067863152  1.13393359594823 7.76752664049355  C 1.59726130181955 7.5437464946719  2.11179891202401 7.43185642176108  2.67754642656162 7.43185642176108  C 3.38960795347965 7.43185642176108  3.98949540423935 7.59478407178912  4.47720877884074 7.92063937184521  C 4.96492215344213 8.24649467190129  5.20877884074283 8.68816601233875  5.20877884074283 9.2456533931576  C 5.20877884074283 9.63825014021312  5.04295629337835 9.99747616376893  4.71131119864941 10.323331463825  C 4.37966610392047 10.6491867638811  4.01388107296942 10.9024116657319  3.61395610579629 11.0830061693775  C 3.21403113862315 11.263600673023  2.8458075407991 11.461862030286  2.50928531232414 11.6777902411666  C 2.17276308384918 11.8937184520471  1.99962483586569 12.0998317442513  1.98987056837366 12.296130117779  L 3.84805852560495 12.296130117779  L 3.84805852560495 11.5894559730791  Z M 25.8610016882386 15.081604038138  C 25.9536672294129 15.1561974200785  26 15.244531688166  26 15.3466068424004  L 26 17.6079641054403  C 26 17.7100392596747  25.9536672294129 17.7983735277622  25.8610016882386 17.8729669097027  C 25.7683361470643 17.9475602916433  25.658600637779 17.9848569826136  25.5317951603827 18  L 7.74001125492403 18  C 7.61320577752767 17.9848569826136  7.50347026824236 17.9475602916433  7.41080472706809 17.8729669097027  C 7.31813918589383 17.7983735277622  7.2718064153067 17.7100392596747  7.2718064153067 17.6079641054403  L 7.2718064153067 15.3466068424004  C 7.2718064153067 15.2366797532249  7.31570061902082 15.1463825014021  7.40348902644907 15.0757150869321  C 7.49127743387732 15.0050476724621  7.60345151003564 14.9697139652271  7.74001125492403 15  L 25.5317951603827 15  C 25.658600637779 14.9697139652271  25.7683361470643 15.0070106561974  25.8610016882386 15.081604038138  Z M 3.81879572312887 4.75827257431296  L 5.39898705683737 4.75827257431296  L 5.39898705683737 5.92428491306786  L 0.497467642093416 5.92428491306786  L 0.497467642093416 4.75827257431296  L 2.06302757456387 4.75827257431296  C 2.06302757456387 4.43634324172742  2.06546614143688 3.95933819405496  2.07034327518289 3.32725743129557  C 2.07522040892891 2.69517666853617  2.07765897580191 2.21817162086371  2.07765897580191 1.89624228827818  L 2.07765897580191 1.7549074593382  L 2.04839617332583 1.7549074593382  C 1.97036203338961 1.88839035333707  1.72650534608891 2.10039259674705  1.31682611142375 2.39091418956814  L 0.277996623522791 1.49579360628155  L 2.26786719189646 0  L 3.81879572312887 0  L 3.81879572312887 4.75827257431296  Z M 25.8610016882386 9.05131800336511  C 25.9536672294129 9.12591138530566  26 9.21424565339316  26 9.31632080762759  L 26 11.5776780706674  C 26 11.6797532249019  25.9536672294129 11.7680874929893  25.8610016882386 11.8426808749299  C 25.7683361470643 11.9172742568704  25.658600637779 11.9545709478407  25.5317951603827 12  L 7.74001125492403 12  C 7.61320577752767 11.9545709478407  7.50347026824236 11.9172742568704  7.41080472706809 11.8426808749299  C 7.31813918589383 11.7680874929893  7.2718064153067 11.6797532249019  7.2718064153067 11.5776780706674  L 7.2718064153067 9.31632080762759  C 7.2718064153067 9.20639371845205  7.31570061902082 9.11609646662928  7.40348902644907 9.04542905215928  C 7.49127743387732 8.97476163768929  7.60345151003564 8.93942793045429  7.74001125492403 9  L 25.5317951603827 9  C 25.658600637779 8.93942793045429  25.7683361470643 8.97672462142457  25.8610016882386 9.05131800336511  Z M 25.8610016882386 3.02103196859226  C 25.9536672294129 3.09562535053281  26 3.1839596186203  26 3.28603477285474  L 26 5.54739203589456  C 26 5.64946719012899  25.9536672294129 5.73780145821649  25.8610016882386 5.81239484015704  C 25.7683361470643 5.88698822209759  25.658600637779 5.92428491306786  25.5317951603827 6  L 7.74001125492403 6  C 7.61320577752767 5.92428491306786  7.50347026824236 5.88698822209759  7.41080472706809 5.81239484015704  C 7.31813918589383 5.73780145821649  7.2718064153067 5.64946719012899  7.2718064153067 5.54739203589456  L 7.2718064153067 3.28603477285474  C 7.2718064153067 3.1839596186203  7.31813918589383 3.09562535053281  7.41080472706809 3.02103196859226  C 7.50347026824236 2.94643858665171  7.61320577752767 2.90914189568144  7.74001125492403 3  L 25.5317951603827 3  C 25.658600637779 2.90914189568144  25.7683361470643 2.94643858665171  25.8610016882386 3.02103196859226  Z " fill-rule="nonzero" fill="#ffffff" stroke="none" transform="matrix(1 0 0 1 23 153 )" />
  </g>
</svg>