<?xml version="1.0" encoding="utf-8"?>
<svg version="1.1" xmlns:xlink="http://www.w3.org/1999/xlink" width="16px" height="7px" xmlns="http://www.w3.org/2000/svg">
  <g transform="matrix(1 0 0 1 -1827 -29 )">
    <path d="M 15.8396793587174 0.721649484536082  C 15.9465597862391 0.801832760595645  16 0.894043528064146  16 0.998281786941581  C 16 1.10252004581901  15.9465597862391 1.19473081328751  15.8396793587174 1.27491408934708  L 8.3687374749499 6.87972508591065  C 8.26185704742819 6.95990836197022  8.13894455577822 7  8 7  C 7.86105544422178 7  7.73814295257181 6.95990836197022  7.6312625250501 6.87972508591065  L 0.160320641282565 1.27491408934708  C 0.0534402137608552 1.19473081328751  0 1.10252004581901  0 0.998281786941581  C 0 0.894043528064146  0.0534402137608552 0.801832760595645  0.160320641282565 0.721649484536082  L 0.961923847695391 0.120274914089347  C 1.0688042752171 0.0400916380297814  1.19171676686707 0  1.33066132264529 0  C 1.46960587842351 0  1.59251837007348 0.0400916380297814  1.69939879759519 0.120274914089347  L 8 4.84707903780069  L 14.3006012024048 0.120274914089347  C 14.4074816299265 0.0400916380297814  14.5303941215765 0  14.6693386773547 0  C 14.8082832331329 0  14.9311957247829 0.0400916380297814  15.0380761523046 0.120274914089347  L 15.8396793587174 0.721649484536082  Z " fill-rule="nonzero" fill="#aaaaaa" stroke="none" transform="matrix(1 0 0 1 1827 29 )" />
  </g>
</svg>