<?xml version="1.0" encoding="utf-8"?>
<svg version="1.1" xmlns:xlink="http://www.w3.org/1999/xlink" width="26px" height="21px" xmlns="http://www.w3.org/2000/svg">
  <g transform="matrix(1 0 0 1 -23 -203 )">
    <path d="M 20.5 11.02734375  C 20.5 11.12890625  20.453125 11.21875  20.359375 11.296875  L 12.359375 17.296875  C 12.2552083333333 17.3671875  12.1354166666667 17.40234375  12 17.40234375  C 11.8645833333333 17.40234375  11.7447916666667 17.3671875  11.640625 17.296875  L 7.140625 13.921875  C 7.046875 13.84375  7 13.75390625  7 13.65234375  C 7 13.55078125  7.046875 13.46484375  7.140625 13.39453125  L 7.859375 12.85546875  C 7.953125 12.78515625  8.06770833333333 12.75  8.203125 12.75  C 8.33854166666667 12.75  8.45833333333333 12.78515625  8.5625 12.85546875  L 12 15.43359375  L 18.9375 10.23046875  C 19.0416666666667 10.16015625  19.1614583333333 10.125  19.296875 10.125  C 19.4322916666667 10.125  19.546875 10.16015625  19.640625 10.23046875  L 20.359375 10.76953125  C 20.453125 10.83984375  20.5 10.92578125  20.5 11.02734375  Z M 2 7.5  L 2 19.5  L 24 19.5  L 24 7.5  L 2 7.5  Z M 7.859375 5.51953125  C 7.953125 5.44921875  8 5.359375  8 5.25  L 8 1.875  C 8 1.765625  7.953125 1.67578125  7.859375 1.60546875  C 7.765625 1.53515625  7.64583333333333 1.5  7.5 1.5  L 6.5 1.5  C 6.35416666666667 1.5  6.234375 1.53515625  6.140625 1.60546875  C 6.046875 1.67578125  6 1.765625  6 1.875  L 6 5.25  C 6 5.359375  6.046875 5.44921875  6.140625 5.51953125  C 6.234375 5.58984375  6.35416666666667 5.625  6.5 5.625  L 7.5 5.625  C 7.64583333333333 5.625  7.765625 5.58984375  7.859375 5.51953125  Z M 19.859375 5.51953125  C 19.953125 5.44921875  20 5.359375  20 5.25  L 20 1.875  C 20 1.765625  19.953125 1.67578125  19.859375 1.60546875  C 19.765625 1.53515625  19.6458333333333 1.5  19.5 1.5  L 18.5 1.5  C 18.3541666666667 1.5  18.234375 1.53515625  18.140625 1.60546875  C 18.046875 1.67578125  18 1.765625  18 1.875  L 18 5.25  C 18 5.359375  18.046875 5.44921875  18.140625 5.51953125  C 18.234375 5.58984375  18.3541666666667 5.625  18.5 5.625  L 19.5 5.625  C 19.6458333333333 5.625  19.765625 5.58984375  19.859375 5.51953125  Z M 25.40625 3.4453125  C 25.8020833333333 3.7421875  26 4.09375  26 4.5  L 26 19.5  C 26 19.90625  25.8020833333333 20.2578125  25.40625 20.5546875  C 25.0104166666667 20.8515625  24.5416666666667 21  24 21  L 2 21  C 1.45833333333333 21  0.989583333333333 20.8515625  0.59375 20.5546875  C 0.197916666666667 20.2578125  0 19.90625  0 19.5  L 0 4.5  C 0 4.09375  0.197916666666667 3.7421875  0.59375 3.4453125  C 0.989583333333333 3.1484375  1.45833333333333 3  2 3  L 4 3  L 4 1.875  C 4 1.359375  4.24479166666667 0.917968749999999  4.734375 0.550781250000001  C 5.22395833333333 0.18359375  5.8125 0  6.5 0  L 7.5 0  C 8.1875 0  8.77604166666667 0.18359375  9.265625 0.550781250000001  C 9.75520833333333 0.917968749999999  10 1.359375  10 1.875  L 10 3  L 16 3  L 16 1.875  C 16 1.359375  16.2447916666667 0.917968749999999  16.734375 0.550781250000001  C 17.2239583333333 0.18359375  17.8125 0  18.5 0  L 19.5 0  C 20.1875 0  20.7760416666667 0.18359375  21.265625 0.550781250000001  C 21.7552083333333 0.917968749999999  22 1.359375  22 1.875  L 22 3  L 24 3  C 24.5416666666667 3  25.0104166666667 3.1484375  25.40625 3.4453125  Z " fill-rule="nonzero" fill="#ffffff" stroke="none" transform="matrix(1 0 0 1 23 203 )" />
  </g>
</svg>