<?xml version="1.0" encoding="utf-8"?>
<svg version="1.1" xmlns:xlink="http://www.w3.org/1999/xlink" width="40px" height="21px" xmlns="http://www.w3.org/2000/svg">
  <g transform="matrix(1 0 0 1 -1546 -416 )">
    <path d="M 0.99609375 14.576953125  C 0.33203125 13.280859375  0 11.921875  0 10.5  C 0 9.078125  0.33203125 7.719140625  0.99609375 6.423046875  C 1.66015625 5.126953125  2.548828125 4.011328125  3.662109375 3.076171875  C 4.775390625 2.141015625  6.103515625 1.39453125  7.646484375 0.836718749999999  C 9.189453125 0.27890625  10.8072916666667 0  12.5 0  L 27.5 0  C 29.1927083333333 0  30.810546875 0.27890625  32.353515625 0.836718749999999  C 33.896484375 1.39453125  35.224609375 2.141015625  36.337890625 3.076171875  C 37.451171875 4.011328125  38.33984375 5.126953125  39.00390625 6.423046875  C 39.66796875 7.719140625  40 9.078125  40 10.5  C 40 11.921875  39.66796875 13.280859375  39.00390625 14.576953125  C 38.33984375 15.873046875  37.451171875 16.988671875  36.337890625 17.923828125  C 35.224609375 18.858984375  33.896484375 19.60546875  32.353515625 20.16328125  C 30.810546875 20.72109375  29.1927083333333 21  27.5 21  L 12.5 21  C 10.8072916666667 21  9.189453125 20.72109375  7.646484375 20.16328125  C 6.103515625 19.60546875  4.775390625 18.858984375  3.662109375 17.923828125  C 2.548828125 16.988671875  1.66015625 15.873046875  0.99609375 14.576953125  Z M 23.623046875 18.235546875  C 24.853515625 18.678515625  26.1458333333333 18.9  27.5 18.9  C 28.8541666666667 18.9  30.146484375 18.678515625  31.376953125 18.235546875  C 32.607421875 17.792578125  33.671875 17.19375  34.5703125 16.4390625  C 35.46875 15.684375  36.181640625 14.790234375  36.708984375 13.756640625  C 37.236328125 12.723046875  37.5 11.6375  37.5 10.5  C 37.5 9.3625  37.236328125 8.276953125  36.708984375 7.243359375  C 36.181640625 6.209765625  35.46875 5.315625  34.5703125 4.5609375  C 33.671875 3.80625  32.607421875 3.207421875  31.376953125 2.764453125  C 30.146484375 2.321484375  28.8541666666667 2.1  27.5 2.1  C 26.1458333333333 2.1  24.853515625 2.321484375  23.623046875 2.764453125  C 22.392578125 3.207421875  21.328125 3.80625  20.4296875 4.5609375  C 19.53125 5.315625  18.818359375 6.209765625  18.291015625 7.243359375  C 17.763671875 8.276953125  17.5 9.3625  17.5 10.5  C 17.5 11.6375  17.763671875 12.723046875  18.291015625 13.756640625  C 18.818359375 14.790234375  19.53125 15.684375  20.4296875 16.4390625  C 21.328125 17.19375  22.392578125 17.792578125  23.623046875 18.235546875  Z " fill-rule="nonzero" fill="#00bfbf" stroke="none" transform="matrix(1 0 0 1 1546 416 )" />
  </g>
</svg>