<?xml version="1.0" encoding="utf-8"?>
<svg version="1.1" xmlns:xlink="http://www.w3.org/1999/xlink" width="15px" height="16px" xmlns="http://www.w3.org/2000/svg">
  <g transform="matrix(1 0 0 1 -25 -82 )">
    <path d="M 11.527972027972 8  L 14.3181818181818 9.60416666666667  C 14.6398601398601 9.78472222222222  14.8479020979021 10.0538194444444  14.9423076923077 10.4114583333333  C 15.0367132867133 10.7690972222222  14.993006993007 11.1076388888889  14.8111888111888 11.4270833333333  L 14.1398601398601 12.5729166666667  C 13.958041958042 12.8923611111111  13.6870629370629 13.0989583333333  13.3269230769231 13.1927083333333  C 12.9667832167832 13.2864583333333  12.6258741258741 13.2430555555556  12.3041958041958 13.0625  L 9.51398601398602 11.46875  L 9.51398601398602 14.6666666666667  C 9.51398601398602 15.0277777777778  9.38111888111888 15.3402777777778  9.11538461538462 15.6041666666667  C 8.84965034965035 15.8680555555556  8.53496503496504 16  8.17132867132867 16  L 6.82867132867133 16  C 6.46503496503497 16  6.15034965034965 15.8680555555556  5.88461538461538 15.6041666666667  C 5.61888111888112 15.3402777777778  5.48601398601399 15.0277777777778  5.48601398601399 14.6666666666667  L 5.48601398601399 11.46875  L 2.6958041958042 13.0625  C 2.37412587412587 13.2430555555556  2.03321678321678 13.2864583333333  1.67307692307692 13.1927083333333  C 1.31293706293706 13.0989583333333  1.04195804195804 12.8923611111111  0.86013986013986 12.5729166666667  L 0.188811188811189 11.4270833333333  C 0.00699300699300704 11.1076388888889  -0.0367132867132867 10.7690972222222  0.0576923076923077 10.4114583333333  C 0.152097902097902 10.0538194444444  0.36013986013986 9.78472222222222  0.681818181818182 9.60416666666667  L 3.47202797202797 8  L 0.681818181818182 6.39583333333333  C 0.36013986013986 6.21527777777778  0.152097902097902 5.94618055555556  0.0576923076923077 5.58854166666667  C -0.0367132867132867 5.23090277777778  0.00699300699300704 4.89236111111111  0.188811188811189 4.57291666666667  L 0.86013986013986 3.42708333333333  C 1.04195804195804 3.10763888888889  1.31293706293706 2.90104166666667  1.67307692307692 2.80729166666667  C 2.03321678321678 2.71354166666667  2.37412587412587 2.75694444444444  2.6958041958042 2.9375  L 5.48601398601399 4.53125  L 5.48601398601399 1.33333333333333  C 5.48601398601399 0.972222222222221  5.61888111888112 0.659722222222221  5.88461538461538 0.395833333333334  C 6.15034965034965 0.131944444444443  6.46503496503497 0  6.82867132867133 0  L 8.17132867132867 0  C 8.53496503496504 0  8.84965034965035 0.131944444444443  9.11538461538462 0.395833333333334  C 9.38111888111888 0.659722222222221  9.51398601398602 0.972222222222221  9.51398601398602 1.33333333333333  L 9.51398601398602 4.53125  L 12.3041958041958 2.9375  C 12.6258741258741 2.75694444444444  12.9667832167832 2.71354166666667  13.3269230769231 2.80729166666667  C 13.6870629370629 2.90104166666667  13.958041958042 3.10763888888889  14.1398601398601 3.42708333333333  L 14.8111888111888 4.57291666666667  C 14.993006993007 4.89236111111111  15.0367132867133 5.23090277777778  14.9423076923077 5.58854166666667  C 14.8479020979021 5.94618055555556  14.6398601398601 6.21527777777778  14.3181818181818 6.39583333333333  L 11.527972027972 8  Z " fill-rule="nonzero" fill="#ffffff" stroke="none" transform="matrix(1 0 0 1 25 82 )" />
  </g>
</svg>