<?xml version="1.0" encoding="utf-8"?>
<svg version="1.1" xmlns:xlink="http://www.w3.org/1999/xlink" width="23px" height="21px" xmlns="http://www.w3.org/2000/svg">
  <g transform="matrix(1 0 0 1 -1789 -94 )">
    <path d="M 17.4296875 18.990234375  C 17.6047676282051 18.8170572916667  17.6923076923077 18.6119791666667  17.6923076923077 18.375  C 17.6923076923077 18.1380208333333  17.6047676282051 17.9329427083333  17.4296875 17.759765625  C 17.2546073717949 17.5865885416667  17.0472756410256 17.5  16.8076923076923 17.5  C 16.568108974359 17.5  16.3607772435897 17.5865885416667  16.1856971153846 17.759765625  C 16.0106169871795 17.9329427083333  15.9230769230769 18.1380208333333  15.9230769230769 18.375  C 15.9230769230769 18.6119791666667  16.0106169871795 18.8170572916667  16.1856971153846 18.990234375  C 16.3607772435897 19.1634114583333  16.568108974359 19.25  16.8076923076923 19.25  C 17.0472756410256 19.25  17.2546073717949 19.1634114583333  17.4296875 18.990234375  Z M 20.9681490384615 18.990234375  C 21.1432291666667 18.8170572916667  21.2307692307692 18.6119791666667  21.2307692307692 18.375  C 21.2307692307692 18.1380208333333  21.1432291666667 17.9329427083333  20.9681490384615 17.759765625  C 20.7930689102564 17.5865885416667  20.5857371794872 17.5  20.3461538461538 17.5  C 20.1065705128205 17.5  19.8992387820513 17.5865885416667  19.7241586538462 17.759765625  C 19.549078525641 17.9329427083333  19.4615384615385 18.1380208333333  19.4615384615385 18.375  C 19.4615384615385 18.6119791666667  19.549078525641 18.8170572916667  19.7241586538462 18.990234375  C 19.8992387820513 19.1634114583333  20.1065705128205 19.25  20.3461538461538 19.25  C 20.5857371794872 19.25  20.7930689102564 19.1634114583333  20.9681490384615 18.990234375  Z M 22.6129807692308 14.3828125  C 22.8709935897436 14.6380208333333  23 14.9479166666667  23 15.3125  L 23 19.6875  C 23 20.0520833333333  22.8709935897436 20.3619791666667  22.6129807692308 20.6171875  C 22.354967948718 20.8723958333333  22.0416666666667 21  21.6730769230769 21  L 1.32692307692308 21  C 0.958333333333333 21  0.645032051282051 20.8723958333333  0.387019230769231 20.6171875  C 0.12900641025641 20.3619791666667  0 20.0520833333333  0 19.6875  L 0 15.3125  C 0 14.9479166666667  0.12900641025641 14.6380208333333  0.387019230769231 14.3828125  C 0.645032051282051 14.1276041666667  0.958333333333333 14  1.32692307692308 14  L 7.75420673076923 14  L 9.62019230769231 15.859375  C 10.1546474358974 16.3697916666667  10.78125 16.625  11.5 16.625  C 12.21875 16.625  12.8453525641026 16.3697916666667  13.3798076923077 15.859375  L 15.2596153846154 14  L 21.6730769230769 14  C 22.0416666666667 14  22.354967948718 14.1276041666667  22.6129807692308 14.3828125  Z M 17.6923076923077 7  C 18.0793269230769 7  18.3511618589744 7.177734375  18.5078125 7.533203125  C 18.6644631410256 7.90690104166667  18.5999599358974 8.22591145833333  18.3143028846154 8.490234375  L 12.1219951923077 14.615234375  C 11.9561298076923 14.7884114583333  11.7487980769231 14.875  11.5 14.875  C 11.2512019230769 14.875  11.0438701923077 14.7884114583333  10.8780048076923 14.615234375  L 4.68569711538462 8.490234375  C 4.40004006410256 8.22591145833333  4.33553685897436 7.90690104166667  4.4921875 7.533203125  C 4.64883814102564 7.177734375  4.92067307692308 7  5.30769230769231 7  L 8.84615384615385 7  L 8.84615384615385 0.874999999999999  C 8.84615384615385 0.63802083333333  8.93369391025641 0.43294270833333  9.10877403846154 0.259765624999999  C 9.28385416666667 0.086588541666668  9.4911858974359 0  9.73076923076923 0  L 13.2692307692308 0  C 13.5088141025641 0  13.7161458333333 0.086588541666668  13.8912259615385 0.259765624999999  C 14.0663060897436 0.43294270833333  14.1538461538462 0.63802083333333  14.1538461538462 0.874999999999999  L 14.1538461538462 7  L 17.6923076923077 7  Z " fill-rule="nonzero" fill="#ffffff" stroke="none" transform="matrix(1 0 0 1 1789 94 )" />
  </g>
</svg>